<?xml version="1.0" encoding="iso-8859-1"?>
<!-- Generator: Adobe Illustrator 16.0.0, SVG Export Plug-In . SVG Version: 6.00 Build 0)  -->
<!DOCTYPE svg PUBLIC "-//W3C//DTD SVG 1.1//EN" "http://www.w3.org/Graphics/SVG/1.1/DTD/svg11.dtd">
<svg version="1.1" id="Capa_1" xmlns="http://www.w3.org/2000/svg" xmlns:xlink="http://www.w3.org/1999/xlink" x="0px" y="0px"
	 width="480.604px" height="480.604px" viewBox="0 0 480.604 480.604" style="enable-background:new 0 0 480.604 480.604;"
	 xml:space="preserve">
<g>
	<g>
		<path d="M34.149,425.919c32.147,27.11,146.205,88.801,238.598,30.32c0,0-35.061-121.533,112.697-180.603
			c0,0-20.852-29.607-72.402-0.108c-41.581,23.796-48.658,9.858-38.223-22.169L385.476,94.04c9.73-10.323,20.117-9.895,20.117-9.895
			c25.291-44.729,54.009-51.479,54.009-51.479L464.486,0L347.91,46.74c7.942,15.521,7.887,24.43,6.424,29.21l-98.382,141.65
			c-8.656,5.099-19.979,9.503-28.653,4.761c-16.164-8.838-2.894-29.094-2.894-29.094s-56.793-9.977-85.4,52.998
			c0,0,43.296,42.019-44.107,86.449C7.487,377.141,1.995,398.812,34.149,425.919z"/>
	</g>
</g>
<g>
</g>
<g>
</g>
<g>
</g>
<g>
</g>
<g>
</g>
<g>
</g>
<g>
</g>
<g>
</g>
<g>
</g>
<g>
</g>
<g>
</g>
<g>
</g>
<g>
</g>
<g>
</g>
<g>
</g>
</svg>
