<?xml version="1.0" encoding="iso-8859-1"?>
<!-- Generator: Adobe Illustrator 16.0.0, SVG Export Plug-In . SVG Version: 6.00 Build 0)  -->
<!DOCTYPE svg PUBLIC "-//W3C//DTD SVG 1.1//EN" "http://www.w3.org/Graphics/SVG/1.1/DTD/svg11.dtd">
<svg version="1.1" id="Capa_1" xmlns="http://www.w3.org/2000/svg" xmlns:xlink="http://www.w3.org/1999/xlink" x="0px" y="0px"
	 width="441.907px" height="441.906px" viewBox="0 0 441.907 441.906" style="enable-background:new 0 0 441.907 441.906;"
	 xml:space="preserve">
<g>
	<g>
		<path d="M266.667,152.27c52.445,0,94.964,7.127,94.964,15.912c0,8.791-42.519,15.916-94.964,15.916
			c-52.443,0-94.956-7.125-94.956-15.916C171.711,159.397,214.224,152.27,266.667,152.27z"/>
		<path d="M176.838,184.105l10.794,70.643H345.73l10.796-70.643c-20.134,8.145-57.13,10.251-89.851,10.251
			C233.947,194.348,196.968,192.25,176.838,184.105z"/>
		<path d="M254.685,110.921c4.544,0,8.231,3.689,8.231,8.237c0,4.547-3.688,8.235-8.231,8.235c-4.557,0-8.243-3.688-8.243-8.235
			C246.442,114.61,250.128,110.921,254.685,110.921z"/>
		<path d="M303.528,114.762c4.544,0,8.23,3.685,8.23,8.233c0,4.55-3.687,8.235-8.23,8.235c-4.549,0-8.235-3.685-8.235-8.235
			C295.292,118.447,298.979,114.762,303.528,114.762z"/>
		<path d="M238.21,114.771L90.821,129.654c-8.636,0.872-12.806,6.985-9.309,13.651c3.476,6.68,13.17,10.606,21.65,8.778
			l135.048-29.088V114.771z"/>
		<path d="M194.856,2.236c-6.368,4.248-6.532,12.646-0.389,18.759l94.257,93.776l8.776-10.434L216.414,6.632
			C210.878-0.034,201.23-2.004,194.856,2.236z"/>
		<path d="M324.839,393.272l-50.982-37.573c7.112-2.164,11.962-6.236,11.962-10.94c0-5.699-7.041-10.443-16.667-12.022
			l-2.124-50.834l-13.173,0.545l2.101,50.213c-9.811,1.503-17.036,6.323-17.036,12.091c0,5.182,5.799,9.621,14.095,11.577
			l-54.077,43.688l0.902,1.118c-5.747,0.998-9.937,3.867-9.937,7.294c0,4.244,6.39,7.686,14.271,7.686s14.271-3.441,14.271-7.686
			c0-1.796-1.192-3.427-3.108-4.732l42.178-34.084l2.429,57.871c-4.477,1.299-7.542,3.812-7.542,6.732
			c0,4.248,6.368,7.69,14.25,7.69c7.883,0,14.274-3.442,14.274-7.69c0-2.981-3.189-5.542-7.803-6.816l-2.424-57.679l37.878,27.928
			c-0.781,0.942-1.218,1.983-1.218,3.09c0,4.248,6.388,7.683,14.266,7.683c7.883,0,14.275-3.435,14.275-7.683
			C335.923,397.104,331.17,394.054,324.839,393.272z"/>
	</g>
</g>
<g>
</g>
<g>
</g>
<g>
</g>
<g>
</g>
<g>
</g>
<g>
</g>
<g>
</g>
<g>
</g>
<g>
</g>
<g>
</g>
<g>
</g>
<g>
</g>
<g>
</g>
<g>
</g>
<g>
</g>
</svg>
