<?xml version="1.0" encoding="iso-8859-1"?>
<!-- Generator: Adobe Illustrator 16.0.0, SVG Export Plug-In . SVG Version: 6.00 Build 0)  -->
<!DOCTYPE svg PUBLIC "-//W3C//DTD SVG 1.1//EN" "http://www.w3.org/Graphics/SVG/1.1/DTD/svg11.dtd">
<svg version="1.1" id="Capa_1" xmlns="http://www.w3.org/2000/svg" xmlns:xlink="http://www.w3.org/1999/xlink" x="0px" y="0px"
	 width="358.995px" height="358.995px" viewBox="0 0 358.995 358.995" style="enable-background:new 0 0 358.995 358.995;"
	 xml:space="preserve">
<g>
	<path d="M311.242,55.114l7.391-22.9c2.008-6.181-1.395-12.826-7.591-14.826c-4.877-1.564-10.011,0.241-12.947,4.106
		c0.469-5.348-2.77-10.503-8.096-12.225c-4.853-1.545-9.966,0.23-12.911,4.059c-0.445-4.524-3.495-8.582-8.096-10.062
		c-6.207-1.981-12.832,1.403-14.827,7.59l-6.677,20.668c-2.536-0.165-5.061-0.391-7.634-0.391c-11.63,0-22.847,1.759-33.49,4.875
		l-50.365-20.82c-0.553-6.169-3.282-10.999-7.644-12.205c-6.608-1.833-14.367,5.29-17.31,15.909
		c-2.945,10.616,0.052,20.721,6.66,22.556c3.526,0.982,7.362-0.651,10.634-3.955l28.573,11.814
		c-33.67,21.071-56.178,58.382-56.178,100.939c0,34.999,15.254,66.417,39.373,88.237c-80.351-23.728-78.565-88.237-78.565-88.237
		s-79.155,36.61-81.439,98.096c-2.284,61.498,34.682,107.956,34.682,107.956s61.164-63.478,108.265-62.159
		c0,0,166.362,11.762,201.552-87.149c9.169-16.883,14.395-36.205,14.395-56.735C358.987,111.354,340.167,76.865,311.242,55.114z
		 M239.875,230.125c-44.026,0-79.867-35.814-79.867-79.87c0-42.36,33.164-77.021,74.869-79.619l-5.229,16.194
		c-1.991,6.188,1.398,12.83,7.59,14.832c1.198,0.387,2.433,0.563,3.619,0.563c3.65,0,7.085-1.731,9.301-4.606
		c0.461,4.514,3.486,8.566,8.087,10.05c1.194,0.383,2.429,0.563,3.619,0.563c3.671,0,7.113-1.739,9.337-4.647
		c-0.461,5.34,2.777,10.474,8.079,12.191c1.206,0.387,2.425,0.567,3.635,0.567c4.97,0,9.582-3.17,11.193-8.157l4.02-12.419
		c13.353,14.287,21.615,33.418,21.615,54.481C319.738,194.294,283.912,230.125,239.875,230.125z"/>
</g>
<g>
</g>
<g>
</g>
<g>
</g>
<g>
</g>
<g>
</g>
<g>
</g>
<g>
</g>
<g>
</g>
<g>
</g>
<g>
</g>
<g>
</g>
<g>
</g>
<g>
</g>
<g>
</g>
<g>
</g>
</svg>
