<?xml version="1.0" encoding="iso-8859-1"?>
<!-- Generator: Adobe Illustrator 16.0.0, SVG Export Plug-In . SVG Version: 6.00 Build 0)  -->
<!DOCTYPE svg PUBLIC "-//W3C//DTD SVG 1.1//EN" "http://www.w3.org/Graphics/SVG/1.1/DTD/svg11.dtd">
<svg version="1.1" id="Capa_1" xmlns="http://www.w3.org/2000/svg" xmlns:xlink="http://www.w3.org/1999/xlink" x="0px" y="0px"
	 width="486.124px" height="486.124px" viewBox="0 0 486.124 486.124" style="enable-background:new 0 0 486.124 486.124;"
	 xml:space="preserve">
<g>
	<g>
		<path d="M267.78,265.807c11.854,19.68,18.808,42.643,18.808,67.236c0,72.146-58.697,130.851-130.843,130.851
			c-72.144,0-130.843-58.705-130.843-130.851c0-72.142,58.699-130.838,130.843-130.838c23.85,0,46.16,6.516,65.433,17.708
			l17.083-15.597c-23.842-15.34-52.126-24.353-82.517-24.353c-84.406,0-153.082,68.671-153.082,153.08
			c0,84.404,68.675,153.08,153.082,153.08c84.408,0,153.084-68.676,153.084-153.08c0-31.302-9.486-60.428-25.684-84.697
			L267.78,265.807z"/>
		<path d="M250.806,203.485l-2.894,2.645l-3.002,2.741l-16.745,15.29c13.832,9.233,25.802,21.039,35.248,34.717l14.987-17.032
			l2.688-3.058l2.602-2.951l75.612-85.917l-23.824-23.762L250.806,203.485z"/>
		<path d="M442.789,6.198c-5.854-5.865-13.301-7.931-16.619-4.619l-6.011,6.007c-5.61,13.848-15.81,29.192-29.96,43.348
			c-14.153,14.156-29.502,24.353-43.36,29.965l-1.226,1.234c5.931,9.452,4.091,22.923-4.793,32.697l29.062,29.064
			c9.237-8.404,21.736-10.427,31.065-5.601l1.788-1.783c5.634-13.8,15.797-29.068,29.875-43.154
			c14.09-14.09,29.362-24.249,43.16-29.875c0,0,2.713-2.727,6.071-6.077c3.358-3.353,1.318-10.836-4.545-16.701L442.789,6.198z"/>
		<path d="M215.141,225.418c-17.625-9.766-37.86-15.362-59.396-15.362c-67.82,0-122.992,55.17-122.992,122.988
			c0,67.826,55.172,123,122.992,123c67.822,0,122.992-55.174,122.992-123c0-22.233-6.02-43.056-16.383-61.069
			c-0.681-1.198-1.41-2.349-2.132-3.522c-0.729-1.154-1.379-2.385-2.14-3.519c-9.414-14.09-21.683-26.076-35.939-35.267
			c-1.146-0.74-2.322-1.431-3.5-2.128C217.463,226.849,216.346,226.085,215.141,225.418z M135.68,395.715l-41.629-41.629
			l11.101-11.101l41.629,41.629L135.68,395.715z"/>
	</g>
</g>
<g>
</g>
<g>
</g>
<g>
</g>
<g>
</g>
<g>
</g>
<g>
</g>
<g>
</g>
<g>
</g>
<g>
</g>
<g>
</g>
<g>
</g>
<g>
</g>
<g>
</g>
<g>
</g>
<g>
</g>
</svg>
