<?xml version="1.0" encoding="iso-8859-1"?>
<!-- Generator: Adobe Illustrator 16.0.0, SVG Export Plug-In . SVG Version: 6.00 Build 0)  -->
<!DOCTYPE svg PUBLIC "-//W3C//DTD SVG 1.1//EN" "http://www.w3.org/Graphics/SVG/1.1/DTD/svg11.dtd">
<svg version="1.1" id="Capa_1" xmlns="http://www.w3.org/2000/svg" xmlns:xlink="http://www.w3.org/1999/xlink" x="0px" y="0px"
	 width="370.471px" height="370.47px" viewBox="0 0 370.471 370.47" style="enable-background:new 0 0 370.471 370.47;"
	 xml:space="preserve">
<g>
	<path d="M324.032,305.506C309.374,295.74,22.708,0,22.708,0H1.23l83.99,91.269l-5.18,9.219c-1.16,2.054-0.841,4.811,0.768,6.554
		l68.331,74.083c0.11,0.465,0.307,0.902,0.643,1.276c0.369,0.427,0.839,0.709,1.334,0.86l30.651,33.223
		c0.966,1.042,2.284,1.563,3.603,1.563c1.176,0,2.346-0.401,3.282-1.242l6.623-5.951l106.433,115.643
		c0,0,10.035,30.352,11.394,43.973c0,0,19.287,0,35.646-15.617c18.755-17.917,20.494-34.904,20.494-34.904L324.032,305.506z
		 M178.795,180.087c1.661-1.334,4.845-0.108,7.146,2.75c2.284,2.839,2.787,6.225,1.138,7.56c-1.655,1.322-4.845,0.112-7.125-2.747
		C177.669,184.798,177.141,181.422,178.795,180.087z M161.792,162.753c1.659-1.334,4.845-0.106,7.129,2.749
		c2.284,2.839,2.803,6.226,1.146,7.558c-1.655,1.331-4.845,0.112-7.146-2.743C160.646,167.464,160.137,164.088,161.792,162.753z
		 M146.091,145.742c1.659-1.334,4.845-0.108,7.129,2.749c2.286,2.839,2.803,6.224,1.146,7.558c-1.655,1.33-4.845,0.112-7.145-2.745
		C144.945,150.453,144.436,147.077,146.091,145.742z M126.375,124.894c1.655-1.334,4.851-0.11,7.143,2.749
		c2.286,2.839,2.803,6.226,1.146,7.558c-1.659,1.326-4.852,0.108-7.144-2.747C125.234,129.604,124.717,126.22,126.375,124.894z
		 M106.748,102.324c1.655-1.334,4.853-0.11,7.146,2.749c2.284,2.839,2.801,6.224,1.146,7.558c-1.661,1.326-4.853,0.108-7.146-2.748
		C105.608,107.034,105.091,103.658,106.748,102.324z M88.763,82.697c1.655-1.334,4.845-0.11,7.137,2.749
		c2.284,2.839,2.793,6.226,1.146,7.558c-1.661,1.326-4.845,0.108-7.137-2.747C87.617,87.408,87.105,84.032,88.763,82.697z
		 M85.236,103.201l4.153-7.394l13.567,14.741l-6.069,5.302L85.236,103.201z M100.859,120.145l6.069-5.282l15.812,17.172
		l-6.045,5.278L100.859,120.145z M120.666,141.614l6.045-5.26l15.85,17.23l-6.013,5.252L120.666,141.614z M140.524,163.148
		l6.016-5.236l11.956,12.99l-5.995,5.235L140.524,163.148z M156.472,180.44l5.999-5.218l12.788,13.892l-5.985,5.205L156.472,180.44z
		 M185.424,211.821l-12.175-13.201l5.965-5.197l12.083,13.124L185.424,211.821z"/>
</g>
<g>
</g>
<g>
</g>
<g>
</g>
<g>
</g>
<g>
</g>
<g>
</g>
<g>
</g>
<g>
</g>
<g>
</g>
<g>
</g>
<g>
</g>
<g>
</g>
<g>
</g>
<g>
</g>
<g>
</g>
</svg>
