<?xml version="1.0" encoding="iso-8859-1"?>
<!-- Generator: Adobe Illustrator 16.0.0, SVG Export Plug-In . SVG Version: 6.00 Build 0)  -->
<!DOCTYPE svg PUBLIC "-//W3C//DTD SVG 1.1//EN" "http://www.w3.org/Graphics/SVG/1.1/DTD/svg11.dtd">
<svg version="1.1" id="Capa_1" xmlns="http://www.w3.org/2000/svg" xmlns:xlink="http://www.w3.org/1999/xlink" x="0px" y="0px"
	 width="437.787px" height="437.788px" viewBox="0 0 437.787 437.788" style="enable-background:new 0 0 437.787 437.788;"
	 xml:space="preserve">
<g>
	<g>
		<path d="M113.331,425.928c-2.06,0-4.131-0.125-6.209-0.377c-13.896-1.695-26.238-8.933-34.756-20.37
			c-8.392-11.284-12.058-25.314-10.315-39.505c0.793-6.464,6.72-10.924,13.118-10.268c6.454,0.79,11.046,6.665,10.261,13.121
			c-0.998,8.171,1.076,16.182,5.833,22.582c4.631,6.227,11.281,10.15,18.715,11.048c7.444,0.958,14.845-1.286,20.845-6.216
			c6.159-5.061,10.101-12.334,11.096-20.51c0.794-6.46,6.69-10.94,13.123-10.271c6.45,0.797,11.042,6.668,10.257,13.116
			c-1.733,14.222-8.667,26.954-19.53,35.862C136.394,421.856,125.057,425.928,113.331,425.928z"/>
	</g>
	<g>
		<path d="M384.237,191.407c-1.535,0-3.065-0.06-4.601-0.18c-6.484-0.517-11.312-6.202-10.792-12.688
			c0.513-6.474,6.1-11.311,12.68-10.786c8.211,0.637,16.153-1.733,22.333-6.743c6.023-4.883,9.674-11.679,10.279-19.155
			c0.613-7.482-1.899-14.792-7.061-20.576c-5.314-5.949-12.748-9.586-20.943-10.253c-6.488-0.519-11.317-6.204-10.788-12.686
			c0.513-6.478,6.079-11.235,12.68-10.786c14.267,1.146,27.278,7.568,36.624,18.047c9.489,10.644,14.098,24.195,12.972,38.143
			c-1.13,13.954-7.851,26.585-18.931,35.558C408.947,187.191,396.856,191.407,384.237,191.407z"/>
	</g>
	<g>
		<path d="M293.629,344.02c-13.77,0-26.993-5.237-37.289-14.783c-4.776-4.424-5.061-11.882-0.637-16.643
			c4.408-4.777,11.866-5.065,16.643-0.638c6.035,5.599,13.822,8.443,21.721,8.504c7.758-0.116,14.835-3.198,19.925-8.696
			c5.098-5.494,7.642-12.792,7.169-20.538c-0.501-7.946-4.096-15.416-10.131-21.003c-4.765-4.424-5.057-11.878-0.633-16.646
			c4.42-4.765,11.866-5.058,16.643-0.634c10.496,9.727,16.76,22.807,17.625,36.837c0.873,14.227-3.879,27.728-13.393,37.994
			c-9.506,10.263-22.603,16.029-36.869,16.238C294.135,344.012,293.89,344.02,293.629,344.02z"/>
	</g>
	<path d="M399.125,128.433c-3.282-3.685-7.935-5.937-13.116-6.36c-6.264-0.501-11.958-3.422-16.038-8.217
		c-4.071-4.793-6.035-10.89-5.534-17.162c0.353-4.382,1.932-8.315,4.276-11.626l-36.492-39.387c-1.955-3.01-4.107-5.881-6.532-8.568
		c-2.829-3.132-5.938-5.933-9.261-8.466l-0.068-0.082l-0.016,0.016C268.535-7.876,172.591,16.738,93.49,88.2
		C8.857,164.667-24.43,265.783,19.173,314.029c2.158,2.392,4.576,4.476,7.025,6.523l-0.102,0.101l35.055,33.142
		c4.502-3.146,10.085-4.837,16.03-4.24c6.466,0.79,12.041,3.939,15.912,8.893c3.879,4.961,5.588,11.125,4.819,17.372
		c-0.629,5.149,0.651,10.167,3.595,14.122c2.695,3.611,6.486,5.879,10.694,6.392c4.765,0.63,8.421-0.741,11.948-3.626
		c3.807-3.126,6.25-7.687,6.885-12.856c1.537-12.587,13.056-21.816,26.032-20.546c6.444,0.798,12.016,3.947,15.896,8.9
		c3.879,4.962,5.588,11.125,4.823,17.372c-0.487,3.988-1.354,7.867-2.5,11.622c24.533-7.342,54.913-21.388,88.312-47.845
		c-5.186-2.737-10.059-6.132-14.459-10.211c-9.521-8.832-10.099-23.768-1.267-33.29c8.448-9.152,24.109-9.782,33.278-1.262
		c3.69,3.418,8.588,5.317,13.81,5.365c4.248-0.067,8.312-1.812,11.192-4.921c2.897-3.121,4.324-7.313,4.048-11.813
		c-0.309-4.921-2.561-9.57-6.372-13.097c-9.529-8.836-10.095-23.756-1.271-33.277c8.472-9.153,24.101-9.774,33.278-1.274
		c4.893,4.532,9,9.67,12.299,15.24c17.492-22.454,30.188-41.91,39.404-58.424c-0.821,0.032-1.635,0.112-2.46,0.112
		c-1.836,0-3.691-0.081-5.538-0.223c-6.276-0.503-11.975-3.412-16.059-8.219c-4.071-4.787-6.035-10.886-5.538-17.162
		c1.05-12.966,12.159-22.622,25.371-21.572c4.957,0.329,10.146-1.058,13.966-4.151c3.499-2.833,5.618-6.735,5.959-10.953
		C403.589,135.977,402.122,131.783,399.125,128.433z M255.206,266.893c-77.543,70.05-173.756,89.898-214.916,44.33
		c-41.168-45.557-11.672-139.276,65.858-209.324c77.53-70.044,173.756-89.889,214.92-44.324
		C362.229,103.138,332.726,196.855,255.206,266.893z"/>
</g>
<g>
</g>
<g>
</g>
<g>
</g>
<g>
</g>
<g>
</g>
<g>
</g>
<g>
</g>
<g>
</g>
<g>
</g>
<g>
</g>
<g>
</g>
<g>
</g>
<g>
</g>
<g>
</g>
<g>
</g>
</svg>
