<svg height="496pt" viewBox="0 0 496 496" width="496pt" xmlns="http://www.w3.org/2000/svg"><path d="m335.71875 168.609375 15.953125-1.210937c-4.414063-57.984376-53.464844-103.398438-111.671875-103.398438v16c49.886719 0 91.9375 38.921875 95.71875 88.609375zm0 0"/><path d="m333.433594 198.160156 15.574218 3.679688c1.328126-5.640625 2.222657-11.433594 2.664063-17.230469l-15.953125-1.210937c-.375 4.96875-1.152344 9.9375-2.285156 14.761718zm0 0"/><path d="m496 176c0-97.046875-78.953125-176-176-176h-80c-97.046875 0-176 78.953125-176 176 0 40.105469 13.808594 78.777344 38.769531 109.921875l-95.457031 95.453125c-4.71875 4.714844-7.3125 10.984375-7.3125 17.65625 0 13.769531 11.199219 24.96875 24.96875 24.96875 6.574219 0 13.007812-2.664062 17.65625-7.3125l96.566406-96.566406c15.273438 10.710937 31.871094 18.824218 49.394532 24.160156l-30.347657 151.71875h64.3125l9.601563-48h95.6875l9.609375 48h64.3125l-30.335938-151.679688c72.03125-22.054687 124.574219-89.160156 124.574219-168.320312zm-244.648438 176h57.289063l9.597656 48h-76.484375zm68.410157-19.183594c24.597656-12.558594 45.871093-30.71875 62.109375-52.816406h27.472656c-22.785156 26.542969-54.03125 45.625-89.582031 52.816406zm101.726562-68.816406h-29.167969c13.769532-23.734375 22.167969-50.953125 23.472657-80h31.800781c-1.464844 29.441406-10.777344 56.832031-26.105469 80zm-5.6875-96c-1.304687-29.046875-9.703125-56.265625-23.472656-80h29.160156c15.328125 23.167969 24.640625 50.558594 26.113281 80zm-33.929687-96c-16.238282-22.097656-37.511719-40.246094-62.109375-52.816406 35.550781 7.191406 66.796875 26.273437 89.582031 52.816406zm-350.558594 333.375c-1.671875 1.664062-3.984375 2.625-6.34375 2.625-4.945312 0-8.96875-4.023438-8.96875-8.96875 0-2.398438.929688-4.648438 2.625-6.34375l136-136c3.527344 4.878906 7.808594 9.160156 12.6875 12.6875zm128.6875-181.375c0-22.054688 17.945312-40 40-40s40 17.945312 40 40-17.945312 40-40 40-40-17.945312-40-40zm95.855469-2.769531c-1.457031-29.589844-25.917969-53.230469-55.855469-53.230469-2.503906 0-4.945312.222656-7.359375.542969 3.597656-22.933594 23.429687-40.542969 47.359375-40.542969 26.472656 0 48 21.527344 48 48 0 20.671875-13.304688 38.617188-32.144531 45.230469zm-55.855469 58.769531c25.871094 0 47.648438-17.664062 54.039062-41.550781 28.863282-6.464844 49.960938-32.34375 49.960938-62.449219 0-35.289062-28.710938-64-64-64-34.414062 0-62.496094 27.328125-63.871094 61.414062-18.953125 8.984376-32.128906 28.25-32.128906 50.585938 0 6.207031 1.054688 12.167969 2.9375 17.753906l-10.007812 10.007813c-16.082032-21.882813-24.929688-48.433594-24.929688-75.761719 0-70.574219 57.425781-128 128-128s128 57.425781 128 128-57.425781 128-128 128c-23.601562 0-46.296875-6.359375-66.230469-18.457031l8.46875-8.472657c5.59375 1.875 11.554688 2.929688 17.761719 2.929688zm-37.777344 17.089844c23.210938 14.949218 49.921875 22.910156 77.777344 22.910156 79.398438 0 144-64.601562 144-144s-64.601562-144-144-144-144 64.601562-144 144c0 31.550781 10.511719 62.175781 29.535156 87.152344l-11.390625 11.390625c-21.992187-28.070313-34.144531-62.679688-34.144531-98.542969 0-88.222656 71.777344-160 160-160s160 71.777344 160 160-71.777344 160-160 160c-32.246094 0-62.902344-9.496094-89.328125-27.359375zm47.226563 182.910156h-31.6875l26.351562-131.777344c10.109375 2.089844 20.445313 3.296875 30.964844 3.585938zm29.101562-64h130.890625l3.199219 16h-137.289063zm112 64-6.398437-32h31.6875l6.398437 32zm15.6875-80h-31.679687l-9.621094-48.128906c10.574219-.296875 20.933594-1.480469 30.964844-3.566406zm22.1875-79.585938c45.636719-31.828124 75.574219-84.679687 75.574219-144.414062s-29.9375-112.585938-75.574219-144.414062c54.039063 25.71875 91.574219 80.695312 91.574219 144.414062s-37.535156 118.695312-91.574219 144.414062zm0 0"/></svg>